<?xml version="1.0" standalone="no"?>
<!DOCTYPE svg PUBLIC "-//W3C//DTD SVG 20010904//EN"
 "http://www.w3.org/TR/2001/REC-SVG-20010904/DTD/svg10.dtd">
<svg version="1.0" xmlns="http://www.w3.org/2000/svg"
 width="1057.000000pt" height="1057.000000pt" viewBox="0 0 1057.000000 1057.000000"
 preserveAspectRatio="xMidYMid meet">
<metadata>
Created by potrace 1.14, written by Peter Selinger 2001-2017
</metadata>
<g transform="translate(0.000000,1057.000000) scale(0.100000,-0.100000)"
fill="#000000" stroke="none">
<path d="M5008 10565 c-1 -1 -50 -6 -108 -9 -58 -4 -118 -9 -135 -11 -16 -2
-57 -7 -90 -11 -33 -3 -71 -8 -85 -9 -36 -4 -210 -33 -240 -39 -13 -3 -40 -8
-60 -11 -20 -3 -45 -7 -55 -9 -33 -7 -159 -36 -175 -40 -8 -3 -36 -9 -61 -15
-213 -49 -540 -160 -829 -282 -83 -35 -415 -202 -500 -252 -41 -24 -90 -52
-108 -63 -143 -82 -556 -371 -592 -413 -3 -3 -27 -24 -55 -46 -27 -21 -52 -42
-55 -45 -3 -3 -43 -39 -90 -80 -151 -132 -391 -379 -521 -534 -13 -16 -29 -34
-34 -40 -6 -6 -35 -42 -65 -81 -30 -38 -57 -72 -60 -75 -3 -3 -27 -34 -52 -70
-26 -36 -51 -70 -56 -75 -19 -23 -153 -227 -209 -320 -166 -272 -325 -598
-435 -890 -33 -86 -125 -365 -133 -399 -2 -12 -20 -82 -39 -156 -35 -133 -83
-352 -91 -420 -3 -19 -7 -45 -10 -58 -7 -38 -25 -172 -31 -232 -3 -30 -7 -68
-9 -85 -13 -95 -20 -273 -20 -520 1 -279 8 -434 30 -595 3 -19 7 -57 11 -85 7
-62 42 -276 54 -330 5 -22 11 -53 14 -70 10 -52 14 -69 26 -115 7 -25 14 -53
16 -63 2 -10 6 -27 9 -37 3 -10 8 -27 10 -39 19 -99 174 -566 225 -676 10 -22
44 -96 74 -165 31 -69 72 -154 91 -190 19 -36 43 -83 53 -105 16 -33 86 -156
163 -284 89 -150 257 -388 393 -556 140 -174 203 -243 391 -430 166 -165 201
-197 349 -318 61 -51 113 -94 116 -97 19 -21 343 -249 428 -301 213 -131 556
-313 712 -378 218 -91 403 -158 604 -221 143 -44 496 -127 626 -146 19 -3 76
-11 125 -19 50 -7 119 -17 155 -21 36 -3 79 -8 95 -10 182 -19 709 -26 890
-11 160 13 375 38 447 52 13 3 43 8 68 11 25 3 47 8 50 9 3 2 26 6 50 10 25 4
83 15 130 26 207 48 223 52 435 115 87 26 320 106 360 124 11 5 65 28 120 51
204 84 481 221 605 299 8 5 40 23 70 41 124 71 407 265 535 366 72 57 164 132
181 148 12 11 48 43 80 70 159 137 429 419 584 610 36 44 67 82 70 85 3 3 38
50 78 105 40 55 76 105 81 111 23 28 183 277 233 364 69 117 188 341 188 352
0 5 11 25 24 46 12 20 27 48 31 62 4 13 22 56 40 95 105 229 238 622 290 855
2 8 12 51 23 95 11 44 23 96 26 115 3 19 8 46 11 60 17 85 44 256 55 345 5 50
12 108 15 130 26 224 27 827 1 1025 -2 14 -7 57 -10 95 -4 39 -9 81 -11 95 -2
14 -9 57 -15 95 -6 39 -14 88 -16 110 -3 22 -7 47 -10 55 -3 8 -7 29 -9 45 -7
51 -64 293 -100 420 -158 562 -406 1093 -733 1570 -72 104 -151 214 -162 225
-3 3 -29 36 -59 74 -50 64 -64 82 -101 125 -167 198 -444 473 -635 631 -49 41
-92 77 -95 81 -11 12 -280 209 -350 256 -85 56 -257 165 -280 176 -8 4 -24 13
-35 20 -287 173 -806 397 -1135 488 -25 7 -49 14 -55 15 -34 10 -132 37 -145
40 -139 34 -248 58 -335 74 -27 5 -61 11 -75 14 -39 7 -160 25 -210 31 -25 3
-56 8 -70 10 -14 2 -56 7 -95 11 -38 3 -90 8 -115 10 -55 6 -677 14 -682 9z"/>
</g>
</svg>
